<?xml version="1.0" encoding="UTF-8"?>
<svg xmlns="http://www.w3.org/2000/svg" xmlns:xlink="http://www.w3.org/1999/xlink" width="12.202mm" height="12.202mm" viewBox="0.604694 -13.177476 12.201839 12.201839">
    <path transform="matrix(1,0,0,-1,0.539966,-13.2422)" style="stroke:#000000;stroke-width:0.05mm;fill:none" d="M6.165646,-0.064724C5.67683,-0.064819,5.1898,-0.12381,4.715092,-0.240425L4.715092,-1.179905C3.009838,-1.676476,1.676479,-3.009838,1.179905,-4.715088L0.240425,-4.715088C0.123814,-5.189796,0.064823,-5.676823,0.064728,-6.165646C0.064823,-6.654469,0.123814,-7.141495,0.240425,-7.616203L1.179905,-7.616203C1.676476,-9.321457,3.009838,-10.654816,4.715092,-11.15139L4.715092,-12.090866C5.1898,-12.207481,5.67683,-12.266472,6.165646,-12.266563C6.654461,-12.266472,7.141499,-12.207481,7.616207,-12.090866L7.616207,-11.15139C9.321461,-10.654816,10.654819,-9.321457,11.151394,-7.616203L12.09087,-7.616203C12.207485,-7.141495,12.266476,-6.654469,12.266567,-6.165646C12.266476,-5.676823,12.207485,-5.189796,12.09087,-4.715088L11.153973,-4.715088C10.657673,-3.008217,9.323078,-1.673622,7.616207,-1.177319L7.616207,-0.240425C7.141499,-0.12381,6.654469,-0.064819,6.165646,-0.064724z"/>
</svg>
