<?xml version="1.0" encoding="UTF-8"?>
<svg xmlns="http://www.w3.org/2000/svg" xmlns:xlink="http://www.w3.org/1999/xlink" width="245.000mm" height="245.000mm" viewBox="0.000000 -245.000000 245.000000 245.000000">
    <path transform="matrix(1.00001,0,0,-1.00001,17.334299,-29.665701)" style="stroke:#000000;stroke-width:0.05mm;fill:none" d="M6.165646,-0.064724C5.67683,-0.064819,5.1898,-0.12381,4.715092,-0.240425L4.715092,-1.179905C3.009838,-1.676476,1.676479,-3.009838,1.179905,-4.715088L0.240425,-4.715088C0.123814,-5.189796,0.064823,-5.676823,0.064728,-6.165646C0.064823,-6.654469,0.123814,-7.141495,0.240425,-7.616203L1.179905,-7.616203C1.676476,-9.321457,3.009838,-10.654816,4.715092,-11.15139L4.715092,-12.090866C5.1898,-12.207481,5.67683,-12.266472,6.165646,-12.266563C6.654461,-12.266472,7.141499,-12.207481,7.616207,-12.090866L7.616207,-11.15139C9.321461,-10.654816,10.654819,-9.321457,11.151394,-7.616203L12.09087,-7.616203C12.207485,-7.141495,12.266476,-6.654469,12.266567,-6.165646C12.266476,-5.676823,12.207485,-5.189796,12.09087,-4.715088L11.153973,-4.715088C10.657673,-3.008217,9.323078,-1.673622,7.616207,-1.177319L7.616207,-0.240425C7.141499,-0.12381,6.654469,-0.064819,6.165646,-0.064724z"/>
    <rect transform="matrix(1,0,0,-1,122.5,-122.5)" style="stroke:#0000ff;stroke-width:0.05mm;fill:none" x="-115.5" y="-115.5" width="231" height="231"/>
    <path transform="matrix(1,0,0,-1,50.3344,-29.6656)" style="stroke:#000000;stroke-width:0.05mm;fill:none" d="M6.165646,-0.064724C5.67683,-0.064819,5.1898,-0.12381,4.715092,-0.240425L4.715092,-1.179905C3.009838,-1.676476,1.676479,-3.009838,1.179905,-4.715088L0.240425,-4.715088C0.123814,-5.189796,0.064823,-5.676823,0.064728,-6.165646C0.064823,-6.654469,0.123814,-7.141495,0.240425,-7.616203L1.179905,-7.616203C1.676476,-9.321457,3.009838,-10.654816,4.715092,-11.15139L4.715092,-12.090866C5.1898,-12.207481,5.67683,-12.266472,6.165646,-12.266563C6.654461,-12.266472,7.141499,-12.207481,7.616207,-12.090866L7.616207,-11.15139C9.321461,-10.654816,10.654819,-9.321457,11.151394,-7.616203L12.09087,-7.616203C12.207485,-7.141495,12.266476,-6.654469,12.266567,-6.165646C12.266476,-5.676823,12.207485,-5.189796,12.09087,-4.715088L11.153973,-4.715088C10.657673,-3.008217,9.323078,-1.673622,7.616207,-1.177319L7.616207,-0.240425C7.141499,-0.12381,6.654469,-0.064819,6.165646,-0.064724z"/>
    <path transform="matrix(1,0,0,-1,83.334396,-29.6656)" style="stroke:#000000;stroke-width:0.05mm;fill:none" d="M6.165646,-0.064724C5.67683,-0.064819,5.1898,-0.12381,4.715092,-0.240425L4.715092,-1.179905C3.009838,-1.676476,1.676479,-3.009838,1.179905,-4.715088L0.240425,-4.715088C0.123814,-5.189796,0.064823,-5.676823,0.064728,-6.165646C0.064823,-6.654469,0.123814,-7.141495,0.240425,-7.616203L1.179905,-7.616203C1.676476,-9.321457,3.009838,-10.654816,4.715092,-11.15139L4.715092,-12.090866C5.1898,-12.207481,5.67683,-12.266472,6.165646,-12.266563C6.654461,-12.266472,7.141499,-12.207481,7.616207,-12.090866L7.616207,-11.15139C9.321461,-10.654816,10.654819,-9.321457,11.151394,-7.616203L12.09087,-7.616203C12.207485,-7.141495,12.266476,-6.654469,12.266567,-6.165646C12.266476,-5.676823,12.207485,-5.189796,12.09087,-4.715088L11.153973,-4.715088C10.657673,-3.008217,9.323078,-1.673622,7.616207,-1.177319L7.616207,-0.240425C7.141499,-0.12381,6.654469,-0.064819,6.165646,-0.064724z"/>
    <path transform="matrix(1,0,0,-1,116.334,-29.6656)" style="stroke:#000000;stroke-width:0.05mm;fill:none" d="M6.165646,-0.064724C5.67683,-0.064819,5.1898,-0.12381,4.715092,-0.240425L4.715092,-1.179905C3.009838,-1.676476,1.676479,-3.009838,1.179905,-4.715088L0.240425,-4.715088C0.123814,-5.189796,0.064823,-5.676823,0.064728,-6.165646C0.064823,-6.654469,0.123814,-7.141495,0.240425,-7.616203L1.179905,-7.616203C1.676476,-9.321457,3.009838,-10.654816,4.715092,-11.15139L4.715092,-12.090866C5.1898,-12.207481,5.67683,-12.266472,6.165646,-12.266563C6.654461,-12.266472,7.141499,-12.207481,7.616207,-12.090866L7.616207,-11.15139C9.321461,-10.654816,10.654819,-9.321457,11.151394,-7.616203L12.09087,-7.616203C12.207485,-7.141495,12.266476,-6.654469,12.266567,-6.165646C12.266476,-5.676823,12.207485,-5.189796,12.09087,-4.715088L11.153973,-4.715088C10.657673,-3.008217,9.323078,-1.673622,7.616207,-1.177319L7.616207,-0.240425C7.141499,-0.12381,6.654469,-0.064819,6.165646,-0.064724z"/>
    <path transform="matrix(1,0,0,-1,149.334,-29.6656)" style="stroke:#000000;stroke-width:0.05mm;fill:none" d="M6.165646,-0.064724C5.67683,-0.064819,5.1898,-0.12381,4.715092,-0.240425L4.715092,-1.179905C3.009838,-1.676476,1.676479,-3.009838,1.179905,-4.715088L0.240425,-4.715088C0.123814,-5.189796,0.064823,-5.676823,0.064728,-6.165646C0.064823,-6.654469,0.123814,-7.141495,0.240425,-7.616203L1.179905,-7.616203C1.676476,-9.321457,3.009838,-10.654816,4.715092,-11.15139L4.715092,-12.090866C5.1898,-12.207481,5.67683,-12.266472,6.165646,-12.266563C6.654461,-12.266472,7.141499,-12.207481,7.616207,-12.090866L7.616207,-11.15139C9.321461,-10.654816,10.654819,-9.321457,11.151394,-7.616203L12.09087,-7.616203C12.207485,-7.141495,12.266476,-6.654469,12.266567,-6.165646C12.266476,-5.676823,12.207485,-5.189796,12.09087,-4.715088L11.153973,-4.715088C10.657673,-3.008217,9.323078,-1.673622,7.616207,-1.177319L7.616207,-0.240425C7.141499,-0.12381,6.654469,-0.064819,6.165646,-0.064724z"/>
    <path transform="matrix(1,0,0,-1,182.334,-29.6656)" style="stroke:#000000;stroke-width:0.05mm;fill:none" d="M6.165646,-0.064724C5.67683,-0.064819,5.1898,-0.12381,4.715092,-0.240425L4.715092,-1.179905C3.009838,-1.676476,1.676479,-3.009838,1.179905,-4.715088L0.240425,-4.715088C0.123814,-5.189796,0.064823,-5.676823,0.064728,-6.165646C0.064823,-6.654469,0.123814,-7.141495,0.240425,-7.616203L1.179905,-7.616203C1.676476,-9.321457,3.009838,-10.654816,4.715092,-11.15139L4.715092,-12.090866C5.1898,-12.207481,5.67683,-12.266472,6.165646,-12.266563C6.654461,-12.266472,7.141499,-12.207481,7.616207,-12.090866L7.616207,-11.15139C9.321461,-10.654816,10.654819,-9.321457,11.151394,-7.616203L12.09087,-7.616203C12.207485,-7.141495,12.266476,-6.654469,12.266567,-6.165646C12.266476,-5.676823,12.207485,-5.189796,12.09087,-4.715088L11.153973,-4.715088C10.657673,-3.008217,9.323078,-1.673622,7.616207,-1.177319L7.616207,-0.240425C7.141499,-0.12381,6.654469,-0.064819,6.165646,-0.064724z"/>
    <path transform="matrix(1,0,0,-1,215.334,-29.6656)" style="stroke:#000000;stroke-width:0.05mm;fill:none" d="M6.165646,-0.064724C5.67683,-0.064819,5.1898,-0.12381,4.715092,-0.240425L4.715092,-1.179905C3.009838,-1.676476,1.676479,-3.009838,1.179905,-4.715088L0.240425,-4.715088C0.123814,-5.189796,0.064823,-5.676823,0.064728,-6.165646C0.064823,-6.654469,0.123814,-7.141495,0.240425,-7.616203L1.179905,-7.616203C1.676476,-9.321457,3.009838,-10.654816,4.715092,-11.15139L4.715092,-12.090866C5.1898,-12.207481,5.67683,-12.266472,6.165646,-12.266563C6.654461,-12.266472,7.141499,-12.207481,7.616207,-12.090866L7.616207,-11.15139C9.321461,-10.654816,10.654819,-9.321457,11.151394,-7.616203L12.09087,-7.616203C12.207485,-7.141495,12.266476,-6.654469,12.266567,-6.165646C12.266476,-5.676823,12.207485,-5.189796,12.09087,-4.715088L11.153973,-4.715088C10.657673,-3.008217,9.323078,-1.673622,7.616207,-1.177319L7.616207,-0.240425C7.141499,-0.12381,6.654469,-0.064819,6.165646,-0.064724z"/>
    <path transform="matrix(1.00001,0,0,-1.00001,17.334299,-62.665699)" style="stroke:#000000;stroke-width:0.05mm;fill:none" d="M6.165646,-0.064724C5.67683,-0.064819,5.1898,-0.12381,4.715092,-0.240425L4.715092,-1.179905C3.009838,-1.676476,1.676479,-3.009838,1.179905,-4.715088L0.240425,-4.715088C0.123814,-5.189796,0.064823,-5.676823,0.064728,-6.165646C0.064823,-6.654469,0.123814,-7.141495,0.240425,-7.616203L1.179905,-7.616203C1.676476,-9.321457,3.009838,-10.654816,4.715092,-11.15139L4.715092,-12.090866C5.1898,-12.207481,5.67683,-12.266472,6.165646,-12.266563C6.654461,-12.266472,7.141499,-12.207481,7.616207,-12.090866L7.616207,-11.15139C9.321461,-10.654816,10.654819,-9.321457,11.151394,-7.616203L12.09087,-7.616203C12.207485,-7.141495,12.266476,-6.654469,12.266567,-6.165646C12.266476,-5.676823,12.207485,-5.189796,12.09087,-4.715088L11.153973,-4.715088C10.657673,-3.008217,9.323078,-1.673622,7.616207,-1.177319L7.616207,-0.240425C7.141499,-0.12381,6.654469,-0.064819,6.165646,-0.064724z"/>
    <path transform="matrix(1.00001,0,0,-1.00001,50.334301,-62.665699)" style="stroke:#000000;stroke-width:0.05mm;fill:none" d="M6.165646,-0.064724C5.67683,-0.064819,5.1898,-0.12381,4.715092,-0.240425L4.715092,-1.179905C3.009838,-1.676476,1.676479,-3.009838,1.179905,-4.715088L0.240425,-4.715088C0.123814,-5.189796,0.064823,-5.676823,0.064728,-6.165646C0.064823,-6.654469,0.123814,-7.141495,0.240425,-7.616203L1.179905,-7.616203C1.676476,-9.321457,3.009838,-10.654816,4.715092,-11.15139L4.715092,-12.090866C5.1898,-12.207481,5.67683,-12.266472,6.165646,-12.266563C6.654461,-12.266472,7.141499,-12.207481,7.616207,-12.090866L7.616207,-11.15139C9.321461,-10.654816,10.654819,-9.321457,11.151394,-7.616203L12.09087,-7.616203C12.207485,-7.141495,12.266476,-6.654469,12.266567,-6.165646C12.266476,-5.676823,12.207485,-5.189796,12.09087,-4.715088L11.153973,-4.715088C10.657673,-3.008217,9.323078,-1.673622,7.616207,-1.177319L7.616207,-0.240425C7.141499,-0.12381,6.654469,-0.064819,6.165646,-0.064724z"/>
    <path transform="matrix(1.00001,0,0,-1.00001,83.334297,-62.665699)" style="stroke:#000000;stroke-width:0.05mm;fill:none" d="M6.165646,-0.064724C5.67683,-0.064819,5.1898,-0.12381,4.715092,-0.240425L4.715092,-1.179905C3.009838,-1.676476,1.676479,-3.009838,1.179905,-4.715088L0.240425,-4.715088C0.123814,-5.189796,0.064823,-5.676823,0.064728,-6.165646C0.064823,-6.654469,0.123814,-7.141495,0.240425,-7.616203L1.179905,-7.616203C1.676476,-9.321457,3.009838,-10.654816,4.715092,-11.15139L4.715092,-12.090866C5.1898,-12.207481,5.67683,-12.266472,6.165646,-12.266563C6.654461,-12.266472,7.141499,-12.207481,7.616207,-12.090866L7.616207,-11.15139C9.321461,-10.654816,10.654819,-9.321457,11.151394,-7.616203L12.09087,-7.616203C12.207485,-7.141495,12.266476,-6.654469,12.266567,-6.165646C12.266476,-5.676823,12.207485,-5.189796,12.09087,-4.715088L11.153973,-4.715088C10.657673,-3.008217,9.323078,-1.673622,7.616207,-1.177319L7.616207,-0.240425C7.141499,-0.12381,6.654469,-0.064819,6.165646,-0.064724z"/>
    <path transform="matrix(1,0,0,-1,116.334,-62.6656)" style="stroke:#000000;stroke-width:0.05mm;fill:none" d="M6.165646,-0.064724C5.67683,-0.064819,5.1898,-0.12381,4.715092,-0.240425L4.715092,-1.179905C3.009838,-1.676476,1.676479,-3.009838,1.179905,-4.715088L0.240425,-4.715088C0.123814,-5.189796,0.064823,-5.676823,0.064728,-6.165646C0.064823,-6.654469,0.123814,-7.141495,0.240425,-7.616203L1.179905,-7.616203C1.676476,-9.321457,3.009838,-10.654816,4.715092,-11.15139L4.715092,-12.090866C5.1898,-12.207481,5.67683,-12.266472,6.165646,-12.266563C6.654461,-12.266472,7.141499,-12.207481,7.616207,-12.090866L7.616207,-11.15139C9.321461,-10.654816,10.654819,-9.321457,11.151394,-7.616203L12.09087,-7.616203C12.207485,-7.141495,12.266476,-6.654469,12.266567,-6.165646C12.266476,-5.676823,12.207485,-5.189796,12.09087,-4.715088L11.153973,-4.715088C10.657673,-3.008217,9.323078,-1.673622,7.616207,-1.177319L7.616207,-0.240425C7.141499,-0.12381,6.654469,-0.064819,6.165646,-0.064724z"/>
    <path transform="matrix(1,0,0,-1,149.334,-62.6656)" style="stroke:#000000;stroke-width:0.05mm;fill:none" d="M6.165646,-0.064724C5.67683,-0.064819,5.1898,-0.12381,4.715092,-0.240425L4.715092,-1.179905C3.009838,-1.676476,1.676479,-3.009838,1.179905,-4.715088L0.240425,-4.715088C0.123814,-5.189796,0.064823,-5.676823,0.064728,-6.165646C0.064823,-6.654469,0.123814,-7.141495,0.240425,-7.616203L1.179905,-7.616203C1.676476,-9.321457,3.009838,-10.654816,4.715092,-11.15139L4.715092,-12.090866C5.1898,-12.207481,5.67683,-12.266472,6.165646,-12.266563C6.654461,-12.266472,7.141499,-12.207481,7.616207,-12.090866L7.616207,-11.15139C9.321461,-10.654816,10.654819,-9.321457,11.151394,-7.616203L12.09087,-7.616203C12.207485,-7.141495,12.266476,-6.654469,12.266567,-6.165646C12.266476,-5.676823,12.207485,-5.189796,12.09087,-4.715088L11.153973,-4.715088C10.657673,-3.008217,9.323078,-1.673622,7.616207,-1.177319L7.616207,-0.240425C7.141499,-0.12381,6.654469,-0.064819,6.165646,-0.064724z"/>
    <path transform="matrix(1,0,0,-1,182.334,-62.6656)" style="stroke:#000000;stroke-width:0.05mm;fill:none" d="M6.165646,-0.064724C5.67683,-0.064819,5.1898,-0.12381,4.715092,-0.240425L4.715092,-1.179905C3.009838,-1.676476,1.676479,-3.009838,1.179905,-4.715088L0.240425,-4.715088C0.123814,-5.189796,0.064823,-5.676823,0.064728,-6.165646C0.064823,-6.654469,0.123814,-7.141495,0.240425,-7.616203L1.179905,-7.616203C1.676476,-9.321457,3.009838,-10.654816,4.715092,-11.15139L4.715092,-12.090866C5.1898,-12.207481,5.67683,-12.266472,6.165646,-12.266563C6.654461,-12.266472,7.141499,-12.207481,7.616207,-12.090866L7.616207,-11.15139C9.321461,-10.654816,10.654819,-9.321457,11.151394,-7.616203L12.09087,-7.616203C12.207485,-7.141495,12.266476,-6.654469,12.266567,-6.165646C12.266476,-5.676823,12.207485,-5.189796,12.09087,-4.715088L11.153973,-4.715088C10.657673,-3.008217,9.323078,-1.673622,7.616207,-1.177319L7.616207,-0.240425C7.141499,-0.12381,6.654469,-0.064819,6.165646,-0.064724z"/>
    <path transform="matrix(1,0,0,-1,215.334,-62.6656)" style="stroke:#000000;stroke-width:0.05mm;fill:none" d="M6.165646,-0.064724C5.67683,-0.064819,5.1898,-0.12381,4.715092,-0.240425L4.715092,-1.179905C3.009838,-1.676476,1.676479,-3.009838,1.179905,-4.715088L0.240425,-4.715088C0.123814,-5.189796,0.064823,-5.676823,0.064728,-6.165646C0.064823,-6.654469,0.123814,-7.141495,0.240425,-7.616203L1.179905,-7.616203C1.676476,-9.321457,3.009838,-10.654816,4.715092,-11.15139L4.715092,-12.090866C5.1898,-12.207481,5.67683,-12.266472,6.165646,-12.266563C6.654461,-12.266472,7.141499,-12.207481,7.616207,-12.090866L7.616207,-11.15139C9.321461,-10.654816,10.654819,-9.321457,11.151394,-7.616203L12.09087,-7.616203C12.207485,-7.141495,12.266476,-6.654469,12.266567,-6.165646C12.266476,-5.676823,12.207485,-5.189796,12.09087,-4.715088L11.153973,-4.715088C10.657673,-3.008217,9.323078,-1.673622,7.616207,-1.177319L7.616207,-0.240425C7.141499,-0.12381,6.654469,-0.064819,6.165646,-0.064724z"/>
    <path transform="matrix(1,0,0,-1,17.3344,-95.665604)" style="stroke:#000000;stroke-width:0.05mm;fill:none" d="M6.165646,-0.064724C5.67683,-0.064819,5.1898,-0.12381,4.715092,-0.240425L4.715092,-1.179905C3.009838,-1.676476,1.676479,-3.009838,1.179905,-4.715088L0.240425,-4.715088C0.123814,-5.189796,0.064823,-5.676823,0.064728,-6.165646C0.064823,-6.654469,0.123814,-7.141495,0.240425,-7.616203L1.179905,-7.616203C1.676476,-9.321457,3.009838,-10.654816,4.715092,-11.15139L4.715092,-12.090866C5.1898,-12.207481,5.67683,-12.266472,6.165646,-12.266563C6.654461,-12.266472,7.141499,-12.207481,7.616207,-12.090866L7.616207,-11.15139C9.321461,-10.654816,10.654819,-9.321457,11.151394,-7.616203L12.09087,-7.616203C12.207485,-7.141495,12.266476,-6.654469,12.266567,-6.165646C12.266476,-5.676823,12.207485,-5.189796,12.09087,-4.715088L11.153973,-4.715088C10.657673,-3.008217,9.323078,-1.673622,7.616207,-1.177319L7.616207,-0.240425C7.141499,-0.12381,6.654469,-0.064819,6.165646,-0.064724z"/>
    <path transform="matrix(1,0,0,-1,50.3344,-95.665604)" style="stroke:#000000;stroke-width:0.05mm;fill:none" d="M6.165646,-0.064724C5.67683,-0.064819,5.1898,-0.12381,4.715092,-0.240425L4.715092,-1.179905C3.009838,-1.676476,1.676479,-3.009838,1.179905,-4.715088L0.240425,-4.715088C0.123814,-5.189796,0.064823,-5.676823,0.064728,-6.165646C0.064823,-6.654469,0.123814,-7.141495,0.240425,-7.616203L1.179905,-7.616203C1.676476,-9.321457,3.009838,-10.654816,4.715092,-11.15139L4.715092,-12.090866C5.1898,-12.207481,5.67683,-12.266472,6.165646,-12.266563C6.654461,-12.266472,7.141499,-12.207481,7.616207,-12.090866L7.616207,-11.15139C9.321461,-10.654816,10.654819,-9.321457,11.151394,-7.616203L12.09087,-7.616203C12.207485,-7.141495,12.266476,-6.654469,12.266567,-6.165646C12.266476,-5.676823,12.207485,-5.189796,12.09087,-4.715088L11.153973,-4.715088C10.657673,-3.008217,9.323078,-1.673622,7.616207,-1.177319L7.616207,-0.240425C7.141499,-0.12381,6.654469,-0.064819,6.165646,-0.064724z"/>
    <path transform="matrix(1,0,0,-1,83.334396,-95.665604)" style="stroke:#000000;stroke-width:0.05mm;fill:none" d="M6.165646,-0.064724C5.67683,-0.064819,5.1898,-0.12381,4.715092,-0.240425L4.715092,-1.179905C3.009838,-1.676476,1.676479,-3.009838,1.179905,-4.715088L0.240425,-4.715088C0.123814,-5.189796,0.064823,-5.676823,0.064728,-6.165646C0.064823,-6.654469,0.123814,-7.141495,0.240425,-7.616203L1.179905,-7.616203C1.676476,-9.321457,3.009838,-10.654816,4.715092,-11.15139L4.715092,-12.090866C5.1898,-12.207481,5.67683,-12.266472,6.165646,-12.266563C6.654461,-12.266472,7.141499,-12.207481,7.616207,-12.090866L7.616207,-11.15139C9.321461,-10.654816,10.654819,-9.321457,11.151394,-7.616203L12.09087,-7.616203C12.207485,-7.141495,12.266476,-6.654469,12.266567,-6.165646C12.266476,-5.676823,12.207485,-5.189796,12.09087,-4.715088L11.153973,-4.715088C10.657673,-3.008217,9.323078,-1.673622,7.616207,-1.177319L7.616207,-0.240425C7.141499,-0.12381,6.654469,-0.064819,6.165646,-0.064724z"/>
    <path transform="matrix(1,0,0,-1,116.334,-95.665604)" style="stroke:#000000;stroke-width:0.05mm;fill:none" d="M6.165646,-0.064724C5.67683,-0.064819,5.1898,-0.12381,4.715092,-0.240425L4.715092,-1.179905C3.009838,-1.676476,1.676479,-3.009838,1.179905,-4.715088L0.240425,-4.715088C0.123814,-5.189796,0.064823,-5.676823,0.064728,-6.165646C0.064823,-6.654469,0.123814,-7.141495,0.240425,-7.616203L1.179905,-7.616203C1.676476,-9.321457,3.009838,-10.654816,4.715092,-11.15139L4.715092,-12.090866C5.1898,-12.207481,5.67683,-12.266472,6.165646,-12.266563C6.654461,-12.266472,7.141499,-12.207481,7.616207,-12.090866L7.616207,-11.15139C9.321461,-10.654816,10.654819,-9.321457,11.151394,-7.616203L12.09087,-7.616203C12.207485,-7.141495,12.266476,-6.654469,12.266567,-6.165646C12.266476,-5.676823,12.207485,-5.189796,12.09087,-4.715088L11.153973,-4.715088C10.657673,-3.008217,9.323078,-1.673622,7.616207,-1.177319L7.616207,-0.240425C7.141499,-0.12381,6.654469,-0.064819,6.165646,-0.064724z"/>
    <path transform="matrix(1,0,0,-1,149.334,-95.665604)" style="stroke:#000000;stroke-width:0.05mm;fill:none" d="M6.165646,-0.064724C5.67683,-0.064819,5.1898,-0.12381,4.715092,-0.240425L4.715092,-1.179905C3.009838,-1.676476,1.676479,-3.009838,1.179905,-4.715088L0.240425,-4.715088C0.123814,-5.189796,0.064823,-5.676823,0.064728,-6.165646C0.064823,-6.654469,0.123814,-7.141495,0.240425,-7.616203L1.179905,-7.616203C1.676476,-9.321457,3.009838,-10.654816,4.715092,-11.15139L4.715092,-12.090866C5.1898,-12.207481,5.67683,-12.266472,6.165646,-12.266563C6.654461,-12.266472,7.141499,-12.207481,7.616207,-12.090866L7.616207,-11.15139C9.321461,-10.654816,10.654819,-9.321457,11.151394,-7.616203L12.09087,-7.616203C12.207485,-7.141495,12.266476,-6.654469,12.266567,-6.165646C12.266476,-5.676823,12.207485,-5.189796,12.09087,-4.715088L11.153973,-4.715088C10.657673,-3.008217,9.323078,-1.673622,7.616207,-1.177319L7.616207,-0.240425C7.141499,-0.12381,6.654469,-0.064819,6.165646,-0.064724z"/>
    <path transform="matrix(1,0,0,-1,182.334,-95.665604)" style="stroke:#000000;stroke-width:0.05mm;fill:none" d="M6.165646,-0.064724C5.67683,-0.064819,5.1898,-0.12381,4.715092,-0.240425L4.715092,-1.179905C3.009838,-1.676476,1.676479,-3.009838,1.179905,-4.715088L0.240425,-4.715088C0.123814,-5.189796,0.064823,-5.676823,0.064728,-6.165646C0.064823,-6.654469,0.123814,-7.141495,0.240425,-7.616203L1.179905,-7.616203C1.676476,-9.321457,3.009838,-10.654816,4.715092,-11.15139L4.715092,-12.090866C5.1898,-12.207481,5.67683,-12.266472,6.165646,-12.266563C6.654461,-12.266472,7.141499,-12.207481,7.616207,-12.090866L7.616207,-11.15139C9.321461,-10.654816,10.654819,-9.321457,11.151394,-7.616203L12.09087,-7.616203C12.207485,-7.141495,12.266476,-6.654469,12.266567,-6.165646C12.266476,-5.676823,12.207485,-5.189796,12.09087,-4.715088L11.153973,-4.715088C10.657673,-3.008217,9.323078,-1.673622,7.616207,-1.177319L7.616207,-0.240425C7.141499,-0.12381,6.654469,-0.064819,6.165646,-0.064724z"/>
    <path transform="matrix(1,0,0,-1,215.334,-95.665604)" style="stroke:#000000;stroke-width:0.05mm;fill:none" d="M6.165646,-0.064724C5.67683,-0.064819,5.1898,-0.12381,4.715092,-0.240425L4.715092,-1.179905C3.009838,-1.676476,1.676479,-3.009838,1.179905,-4.715088L0.240425,-4.715088C0.123814,-5.189796,0.064823,-5.676823,0.064728,-6.165646C0.064823,-6.654469,0.123814,-7.141495,0.240425,-7.616203L1.179905,-7.616203C1.676476,-9.321457,3.009838,-10.654816,4.715092,-11.15139L4.715092,-12.090866C5.1898,-12.207481,5.67683,-12.266472,6.165646,-12.266563C6.654461,-12.266472,7.141499,-12.207481,7.616207,-12.090866L7.616207,-11.15139C9.321461,-10.654816,10.654819,-9.321457,11.151394,-7.616203L12.09087,-7.616203C12.207485,-7.141495,12.266476,-6.654469,12.266567,-6.165646C12.266476,-5.676823,12.207485,-5.189796,12.09087,-4.715088L11.153973,-4.715088C10.657673,-3.008217,9.323078,-1.673622,7.616207,-1.177319L7.616207,-0.240425C7.141499,-0.12381,6.654469,-0.064819,6.165646,-0.064724z"/>
    <path transform="matrix(1,0,0,-1,17.3344,-128.666)" style="stroke:#000000;stroke-width:0.05mm;fill:none" d="M6.165646,-0.064724C5.67683,-0.064819,5.1898,-0.12381,4.715092,-0.240425L4.715092,-1.179905C3.009838,-1.676476,1.676479,-3.009838,1.179905,-4.715088L0.240425,-4.715088C0.123814,-5.189796,0.064823,-5.676823,0.064728,-6.165646C0.064823,-6.654469,0.123814,-7.141495,0.240425,-7.616203L1.179905,-7.616203C1.676476,-9.321457,3.009838,-10.654816,4.715092,-11.15139L4.715092,-12.090866C5.1898,-12.207481,5.67683,-12.266472,6.165646,-12.266563C6.654461,-12.266472,7.141499,-12.207481,7.616207,-12.090866L7.616207,-11.15139C9.321461,-10.654816,10.654819,-9.321457,11.151394,-7.616203L12.09087,-7.616203C12.207485,-7.141495,12.266476,-6.654469,12.266567,-6.165646C12.266476,-5.676823,12.207485,-5.189796,12.09087,-4.715088L11.153973,-4.715088C10.657673,-3.008217,9.323078,-1.673622,7.616207,-1.177319L7.616207,-0.240425C7.141499,-0.12381,6.654469,-0.064819,6.165646,-0.064724z"/>
    <path transform="matrix(1,0,0,-1,50.3344,-128.666)" style="stroke:#000000;stroke-width:0.05mm;fill:none" d="M6.165646,-0.064724C5.67683,-0.064819,5.1898,-0.12381,4.715092,-0.240425L4.715092,-1.179905C3.009838,-1.676476,1.676479,-3.009838,1.179905,-4.715088L0.240425,-4.715088C0.123814,-5.189796,0.064823,-5.676823,0.064728,-6.165646C0.064823,-6.654469,0.123814,-7.141495,0.240425,-7.616203L1.179905,-7.616203C1.676476,-9.321457,3.009838,-10.654816,4.715092,-11.15139L4.715092,-12.090866C5.1898,-12.207481,5.67683,-12.266472,6.165646,-12.266563C6.654461,-12.266472,7.141499,-12.207481,7.616207,-12.090866L7.616207,-11.15139C9.321461,-10.654816,10.654819,-9.321457,11.151394,-7.616203L12.09087,-7.616203C12.207485,-7.141495,12.266476,-6.654469,12.266567,-6.165646C12.266476,-5.676823,12.207485,-5.189796,12.09087,-4.715088L11.153973,-4.715088C10.657673,-3.008217,9.323078,-1.673622,7.616207,-1.177319L7.616207,-0.240425C7.141499,-0.12381,6.654469,-0.064819,6.165646,-0.064724z"/>
    <path transform="matrix(1,0,0,-1,83.334396,-128.666)" style="stroke:#000000;stroke-width:0.05mm;fill:none" d="M6.165646,-0.064724C5.67683,-0.064819,5.1898,-0.12381,4.715092,-0.240425L4.715092,-1.179905C3.009838,-1.676476,1.676479,-3.009838,1.179905,-4.715088L0.240425,-4.715088C0.123814,-5.189796,0.064823,-5.676823,0.064728,-6.165646C0.064823,-6.654469,0.123814,-7.141495,0.240425,-7.616203L1.179905,-7.616203C1.676476,-9.321457,3.009838,-10.654816,4.715092,-11.15139L4.715092,-12.090866C5.1898,-12.207481,5.67683,-12.266472,6.165646,-12.266563C6.654461,-12.266472,7.141499,-12.207481,7.616207,-12.090866L7.616207,-11.15139C9.321461,-10.654816,10.654819,-9.321457,11.151394,-7.616203L12.09087,-7.616203C12.207485,-7.141495,12.266476,-6.654469,12.266567,-6.165646C12.266476,-5.676823,12.207485,-5.189796,12.09087,-4.715088L11.153973,-4.715088C10.657673,-3.008217,9.323078,-1.673622,7.616207,-1.177319L7.616207,-0.240425C7.141499,-0.12381,6.654469,-0.064819,6.165646,-0.064724z"/>
    <path transform="matrix(1,0,0,-1,116.334,-128.666)" style="stroke:#000000;stroke-width:0.05mm;fill:none" d="M6.165646,-0.064724C5.67683,-0.064819,5.1898,-0.12381,4.715092,-0.240425L4.715092,-1.179905C3.009838,-1.676476,1.676479,-3.009838,1.179905,-4.715088L0.240425,-4.715088C0.123814,-5.189796,0.064823,-5.676823,0.064728,-6.165646C0.064823,-6.654469,0.123814,-7.141495,0.240425,-7.616203L1.179905,-7.616203C1.676476,-9.321457,3.009838,-10.654816,4.715092,-11.15139L4.715092,-12.090866C5.1898,-12.207481,5.67683,-12.266472,6.165646,-12.266563C6.654461,-12.266472,7.141499,-12.207481,7.616207,-12.090866L7.616207,-11.15139C9.321461,-10.654816,10.654819,-9.321457,11.151394,-7.616203L12.09087,-7.616203C12.207485,-7.141495,12.266476,-6.654469,12.266567,-6.165646C12.266476,-5.676823,12.207485,-5.189796,12.09087,-4.715088L11.153973,-4.715088C10.657673,-3.008217,9.323078,-1.673622,7.616207,-1.177319L7.616207,-0.240425C7.141499,-0.12381,6.654469,-0.064819,6.165646,-0.064724z"/>
    <path transform="matrix(1,0,0,-1,149.334,-128.666)" style="stroke:#000000;stroke-width:0.05mm;fill:none" d="M6.165646,-0.064724C5.67683,-0.064819,5.1898,-0.12381,4.715092,-0.240425L4.715092,-1.179905C3.009838,-1.676476,1.676479,-3.009838,1.179905,-4.715088L0.240425,-4.715088C0.123814,-5.189796,0.064823,-5.676823,0.064728,-6.165646C0.064823,-6.654469,0.123814,-7.141495,0.240425,-7.616203L1.179905,-7.616203C1.676476,-9.321457,3.009838,-10.654816,4.715092,-11.15139L4.715092,-12.090866C5.1898,-12.207481,5.67683,-12.266472,6.165646,-12.266563C6.654461,-12.266472,7.141499,-12.207481,7.616207,-12.090866L7.616207,-11.15139C9.321461,-10.654816,10.654819,-9.321457,11.151394,-7.616203L12.09087,-7.616203C12.207485,-7.141495,12.266476,-6.654469,12.266567,-6.165646C12.266476,-5.676823,12.207485,-5.189796,12.09087,-4.715088L11.153973,-4.715088C10.657673,-3.008217,9.323078,-1.673622,7.616207,-1.177319L7.616207,-0.240425C7.141499,-0.12381,6.654469,-0.064819,6.165646,-0.064724z"/>
    <path transform="matrix(1,0,0,-1,182.334,-128.666)" style="stroke:#000000;stroke-width:0.05mm;fill:none" d="M6.165646,-0.064724C5.67683,-0.064819,5.1898,-0.12381,4.715092,-0.240425L4.715092,-1.179905C3.009838,-1.676476,1.676479,-3.009838,1.179905,-4.715088L0.240425,-4.715088C0.123814,-5.189796,0.064823,-5.676823,0.064728,-6.165646C0.064823,-6.654469,0.123814,-7.141495,0.240425,-7.616203L1.179905,-7.616203C1.676476,-9.321457,3.009838,-10.654816,4.715092,-11.15139L4.715092,-12.090866C5.1898,-12.207481,5.67683,-12.266472,6.165646,-12.266563C6.654461,-12.266472,7.141499,-12.207481,7.616207,-12.090866L7.616207,-11.15139C9.321461,-10.654816,10.654819,-9.321457,11.151394,-7.616203L12.09087,-7.616203C12.207485,-7.141495,12.266476,-6.654469,12.266567,-6.165646C12.266476,-5.676823,12.207485,-5.189796,12.09087,-4.715088L11.153973,-4.715088C10.657673,-3.008217,9.323078,-1.673622,7.616207,-1.177319L7.616207,-0.240425C7.141499,-0.12381,6.654469,-0.064819,6.165646,-0.064724z"/>
    <path transform="matrix(1,0,0,-1,215.334,-128.666)" style="stroke:#000000;stroke-width:0.05mm;fill:none" d="M6.165646,-0.064724C5.67683,-0.064819,5.1898,-0.12381,4.715092,-0.240425L4.715092,-1.179905C3.009838,-1.676476,1.676479,-3.009838,1.179905,-4.715088L0.240425,-4.715088C0.123814,-5.189796,0.064823,-5.676823,0.064728,-6.165646C0.064823,-6.654469,0.123814,-7.141495,0.240425,-7.616203L1.179905,-7.616203C1.676476,-9.321457,3.009838,-10.654816,4.715092,-11.15139L4.715092,-12.090866C5.1898,-12.207481,5.67683,-12.266472,6.165646,-12.266563C6.654461,-12.266472,7.141499,-12.207481,7.616207,-12.090866L7.616207,-11.15139C9.321461,-10.654816,10.654819,-9.321457,11.151394,-7.616203L12.09087,-7.616203C12.207485,-7.141495,12.266476,-6.654469,12.266567,-6.165646C12.266476,-5.676823,12.207485,-5.189796,12.09087,-4.715088L11.153973,-4.715088C10.657673,-3.008217,9.323078,-1.673622,7.616207,-1.177319L7.616207,-0.240425C7.141499,-0.12381,6.654469,-0.064819,6.165646,-0.064724z"/>
    <path transform="matrix(1,0,0,-1,17.3344,-161.666)" style="stroke:#000000;stroke-width:0.05mm;fill:none" d="M6.165646,-0.064724C5.67683,-0.064819,5.1898,-0.12381,4.715092,-0.240425L4.715092,-1.179905C3.009838,-1.676476,1.676479,-3.009838,1.179905,-4.715088L0.240425,-4.715088C0.123814,-5.189796,0.064823,-5.676823,0.064728,-6.165646C0.064823,-6.654469,0.123814,-7.141495,0.240425,-7.616203L1.179905,-7.616203C1.676476,-9.321457,3.009838,-10.654816,4.715092,-11.15139L4.715092,-12.090866C5.1898,-12.207481,5.67683,-12.266472,6.165646,-12.266563C6.654461,-12.266472,7.141499,-12.207481,7.616207,-12.090866L7.616207,-11.15139C9.321461,-10.654816,10.654819,-9.321457,11.151394,-7.616203L12.09087,-7.616203C12.207485,-7.141495,12.266476,-6.654469,12.266567,-6.165646C12.266476,-5.676823,12.207485,-5.189796,12.09087,-4.715088L11.153973,-4.715088C10.657673,-3.008217,9.323078,-1.673622,7.616207,-1.177319L7.616207,-0.240425C7.141499,-0.12381,6.654469,-0.064819,6.165646,-0.064724z"/>
    <path transform="matrix(1,0,0,-1,50.3344,-161.666)" style="stroke:#000000;stroke-width:0.05mm;fill:none" d="M6.165646,-0.064724C5.67683,-0.064819,5.1898,-0.12381,4.715092,-0.240425L4.715092,-1.179905C3.009838,-1.676476,1.676479,-3.009838,1.179905,-4.715088L0.240425,-4.715088C0.123814,-5.189796,0.064823,-5.676823,0.064728,-6.165646C0.064823,-6.654469,0.123814,-7.141495,0.240425,-7.616203L1.179905,-7.616203C1.676476,-9.321457,3.009838,-10.654816,4.715092,-11.15139L4.715092,-12.090866C5.1898,-12.207481,5.67683,-12.266472,6.165646,-12.266563C6.654461,-12.266472,7.141499,-12.207481,7.616207,-12.090866L7.616207,-11.15139C9.321461,-10.654816,10.654819,-9.321457,11.151394,-7.616203L12.09087,-7.616203C12.207485,-7.141495,12.266476,-6.654469,12.266567,-6.165646C12.266476,-5.676823,12.207485,-5.189796,12.09087,-4.715088L11.153973,-4.715088C10.657673,-3.008217,9.323078,-1.673622,7.616207,-1.177319L7.616207,-0.240425C7.141499,-0.12381,6.654469,-0.064819,6.165646,-0.064724z"/>
    <path transform="matrix(1,0,0,-1,83.334396,-161.666)" style="stroke:#000000;stroke-width:0.05mm;fill:none" d="M6.165646,-0.064724C5.67683,-0.064819,5.1898,-0.12381,4.715092,-0.240425L4.715092,-1.179905C3.009838,-1.676476,1.676479,-3.009838,1.179905,-4.715088L0.240425,-4.715088C0.123814,-5.189796,0.064823,-5.676823,0.064728,-6.165646C0.064823,-6.654469,0.123814,-7.141495,0.240425,-7.616203L1.179905,-7.616203C1.676476,-9.321457,3.009838,-10.654816,4.715092,-11.15139L4.715092,-12.090866C5.1898,-12.207481,5.67683,-12.266472,6.165646,-12.266563C6.654461,-12.266472,7.141499,-12.207481,7.616207,-12.090866L7.616207,-11.15139C9.321461,-10.654816,10.654819,-9.321457,11.151394,-7.616203L12.09087,-7.616203C12.207485,-7.141495,12.266476,-6.654469,12.266567,-6.165646C12.266476,-5.676823,12.207485,-5.189796,12.09087,-4.715088L11.153973,-4.715088C10.657673,-3.008217,9.323078,-1.673622,7.616207,-1.177319L7.616207,-0.240425C7.141499,-0.12381,6.654469,-0.064819,6.165646,-0.064724z"/>
    <path transform="matrix(1,0,0,-1,116.334,-161.666)" style="stroke:#000000;stroke-width:0.05mm;fill:none" d="M6.165646,-0.064724C5.67683,-0.064819,5.1898,-0.12381,4.715092,-0.240425L4.715092,-1.179905C3.009838,-1.676476,1.676479,-3.009838,1.179905,-4.715088L0.240425,-4.715088C0.123814,-5.189796,0.064823,-5.676823,0.064728,-6.165646C0.064823,-6.654469,0.123814,-7.141495,0.240425,-7.616203L1.179905,-7.616203C1.676476,-9.321457,3.009838,-10.654816,4.715092,-11.15139L4.715092,-12.090866C5.1898,-12.207481,5.67683,-12.266472,6.165646,-12.266563C6.654461,-12.266472,7.141499,-12.207481,7.616207,-12.090866L7.616207,-11.15139C9.321461,-10.654816,10.654819,-9.321457,11.151394,-7.616203L12.09087,-7.616203C12.207485,-7.141495,12.266476,-6.654469,12.266567,-6.165646C12.266476,-5.676823,12.207485,-5.189796,12.09087,-4.715088L11.153973,-4.715088C10.657673,-3.008217,9.323078,-1.673622,7.616207,-1.177319L7.616207,-0.240425C7.141499,-0.12381,6.654469,-0.064819,6.165646,-0.064724z"/>
    <path transform="matrix(1,0,0,-1,149.334,-161.666)" style="stroke:#000000;stroke-width:0.05mm;fill:none" d="M6.165646,-0.064724C5.67683,-0.064819,5.1898,-0.12381,4.715092,-0.240425L4.715092,-1.179905C3.009838,-1.676476,1.676479,-3.009838,1.179905,-4.715088L0.240425,-4.715088C0.123814,-5.189796,0.064823,-5.676823,0.064728,-6.165646C0.064823,-6.654469,0.123814,-7.141495,0.240425,-7.616203L1.179905,-7.616203C1.676476,-9.321457,3.009838,-10.654816,4.715092,-11.15139L4.715092,-12.090866C5.1898,-12.207481,5.67683,-12.266472,6.165646,-12.266563C6.654461,-12.266472,7.141499,-12.207481,7.616207,-12.090866L7.616207,-11.15139C9.321461,-10.654816,10.654819,-9.321457,11.151394,-7.616203L12.09087,-7.616203C12.207485,-7.141495,12.266476,-6.654469,12.266567,-6.165646C12.266476,-5.676823,12.207485,-5.189796,12.09087,-4.715088L11.153973,-4.715088C10.657673,-3.008217,9.323078,-1.673622,7.616207,-1.177319L7.616207,-0.240425C7.141499,-0.12381,6.654469,-0.064819,6.165646,-0.064724z"/>
    <path transform="matrix(1,0,0,-1,182.334,-161.666)" style="stroke:#000000;stroke-width:0.05mm;fill:none" d="M6.165646,-0.064724C5.67683,-0.064819,5.1898,-0.12381,4.715092,-0.240425L4.715092,-1.179905C3.009838,-1.676476,1.676479,-3.009838,1.179905,-4.715088L0.240425,-4.715088C0.123814,-5.189796,0.064823,-5.676823,0.064728,-6.165646C0.064823,-6.654469,0.123814,-7.141495,0.240425,-7.616203L1.179905,-7.616203C1.676476,-9.321457,3.009838,-10.654816,4.715092,-11.15139L4.715092,-12.090866C5.1898,-12.207481,5.67683,-12.266472,6.165646,-12.266563C6.654461,-12.266472,7.141499,-12.207481,7.616207,-12.090866L7.616207,-11.15139C9.321461,-10.654816,10.654819,-9.321457,11.151394,-7.616203L12.09087,-7.616203C12.207485,-7.141495,12.266476,-6.654469,12.266567,-6.165646C12.266476,-5.676823,12.207485,-5.189796,12.09087,-4.715088L11.153973,-4.715088C10.657673,-3.008217,9.323078,-1.673622,7.616207,-1.177319L7.616207,-0.240425C7.141499,-0.12381,6.654469,-0.064819,6.165646,-0.064724z"/>
    <path transform="matrix(1,0,0,-1,215.334,-161.666)" style="stroke:#000000;stroke-width:0.05mm;fill:none" d="M6.165646,-0.064724C5.67683,-0.064819,5.1898,-0.12381,4.715092,-0.240425L4.715092,-1.179905C3.009838,-1.676476,1.676479,-3.009838,1.179905,-4.715088L0.240425,-4.715088C0.123814,-5.189796,0.064823,-5.676823,0.064728,-6.165646C0.064823,-6.654469,0.123814,-7.141495,0.240425,-7.616203L1.179905,-7.616203C1.676476,-9.321457,3.009838,-10.654816,4.715092,-11.15139L4.715092,-12.090866C5.1898,-12.207481,5.67683,-12.266472,6.165646,-12.266563C6.654461,-12.266472,7.141499,-12.207481,7.616207,-12.090866L7.616207,-11.15139C9.321461,-10.654816,10.654819,-9.321457,11.151394,-7.616203L12.09087,-7.616203C12.207485,-7.141495,12.266476,-6.654469,12.266567,-6.165646C12.266476,-5.676823,12.207485,-5.189796,12.09087,-4.715088L11.153973,-4.715088C10.657673,-3.008217,9.323078,-1.673622,7.616207,-1.177319L7.616207,-0.240425C7.141499,-0.12381,6.654469,-0.064819,6.165646,-0.064724z"/>
    <path transform="matrix(1,0,0,-1,17.3344,-194.666)" style="stroke:#000000;stroke-width:0.05mm;fill:none" d="M6.165646,-0.064724C5.67683,-0.064819,5.1898,-0.12381,4.715092,-0.240425L4.715092,-1.179905C3.009838,-1.676476,1.676479,-3.009838,1.179905,-4.715088L0.240425,-4.715088C0.123814,-5.189796,0.064823,-5.676823,0.064728,-6.165646C0.064823,-6.654469,0.123814,-7.141495,0.240425,-7.616203L1.179905,-7.616203C1.676476,-9.321457,3.009838,-10.654816,4.715092,-11.15139L4.715092,-12.090866C5.1898,-12.207481,5.67683,-12.266472,6.165646,-12.266563C6.654461,-12.266472,7.141499,-12.207481,7.616207,-12.090866L7.616207,-11.15139C9.321461,-10.654816,10.654819,-9.321457,11.151394,-7.616203L12.09087,-7.616203C12.207485,-7.141495,12.266476,-6.654469,12.266567,-6.165646C12.266476,-5.676823,12.207485,-5.189796,12.09087,-4.715088L11.153973,-4.715088C10.657673,-3.008217,9.323078,-1.673622,7.616207,-1.177319L7.616207,-0.240425C7.141499,-0.12381,6.654469,-0.064819,6.165646,-0.064724z"/>
    <path transform="matrix(1,0,0,-1,50.3344,-194.666)" style="stroke:#000000;stroke-width:0.05mm;fill:none" d="M6.165646,-0.064724C5.67683,-0.064819,5.1898,-0.12381,4.715092,-0.240425L4.715092,-1.179905C3.009838,-1.676476,1.676479,-3.009838,1.179905,-4.715088L0.240425,-4.715088C0.123814,-5.189796,0.064823,-5.676823,0.064728,-6.165646C0.064823,-6.654469,0.123814,-7.141495,0.240425,-7.616203L1.179905,-7.616203C1.676476,-9.321457,3.009838,-10.654816,4.715092,-11.15139L4.715092,-12.090866C5.1898,-12.207481,5.67683,-12.266472,6.165646,-12.266563C6.654461,-12.266472,7.141499,-12.207481,7.616207,-12.090866L7.616207,-11.15139C9.321461,-10.654816,10.654819,-9.321457,11.151394,-7.616203L12.09087,-7.616203C12.207485,-7.141495,12.266476,-6.654469,12.266567,-6.165646C12.266476,-5.676823,12.207485,-5.189796,12.09087,-4.715088L11.153973,-4.715088C10.657673,-3.008217,9.323078,-1.673622,7.616207,-1.177319L7.616207,-0.240425C7.141499,-0.12381,6.654469,-0.064819,6.165646,-0.064724z"/>
    <path transform="matrix(1,0,0,-1,83.334396,-194.666)" style="stroke:#000000;stroke-width:0.05mm;fill:none" d="M6.165646,-0.064724C5.67683,-0.064819,5.1898,-0.12381,4.715092,-0.240425L4.715092,-1.179905C3.009838,-1.676476,1.676479,-3.009838,1.179905,-4.715088L0.240425,-4.715088C0.123814,-5.189796,0.064823,-5.676823,0.064728,-6.165646C0.064823,-6.654469,0.123814,-7.141495,0.240425,-7.616203L1.179905,-7.616203C1.676476,-9.321457,3.009838,-10.654816,4.715092,-11.15139L4.715092,-12.090866C5.1898,-12.207481,5.67683,-12.266472,6.165646,-12.266563C6.654461,-12.266472,7.141499,-12.207481,7.616207,-12.090866L7.616207,-11.15139C9.321461,-10.654816,10.654819,-9.321457,11.151394,-7.616203L12.09087,-7.616203C12.207485,-7.141495,12.266476,-6.654469,12.266567,-6.165646C12.266476,-5.676823,12.207485,-5.189796,12.09087,-4.715088L11.153973,-4.715088C10.657673,-3.008217,9.323078,-1.673622,7.616207,-1.177319L7.616207,-0.240425C7.141499,-0.12381,6.654469,-0.064819,6.165646,-0.064724z"/>
    <path transform="matrix(1,0,0,-1,116.334,-194.666)" style="stroke:#000000;stroke-width:0.05mm;fill:none" d="M6.165646,-0.064724C5.67683,-0.064819,5.1898,-0.12381,4.715092,-0.240425L4.715092,-1.179905C3.009838,-1.676476,1.676479,-3.009838,1.179905,-4.715088L0.240425,-4.715088C0.123814,-5.189796,0.064823,-5.676823,0.064728,-6.165646C0.064823,-6.654469,0.123814,-7.141495,0.240425,-7.616203L1.179905,-7.616203C1.676476,-9.321457,3.009838,-10.654816,4.715092,-11.15139L4.715092,-12.090866C5.1898,-12.207481,5.67683,-12.266472,6.165646,-12.266563C6.654461,-12.266472,7.141499,-12.207481,7.616207,-12.090866L7.616207,-11.15139C9.321461,-10.654816,10.654819,-9.321457,11.151394,-7.616203L12.09087,-7.616203C12.207485,-7.141495,12.266476,-6.654469,12.266567,-6.165646C12.266476,-5.676823,12.207485,-5.189796,12.09087,-4.715088L11.153973,-4.715088C10.657673,-3.008217,9.323078,-1.673622,7.616207,-1.177319L7.616207,-0.240425C7.141499,-0.12381,6.654469,-0.064819,6.165646,-0.064724z"/>
    <path transform="matrix(1,0,0,-1,149.334,-194.666)" style="stroke:#000000;stroke-width:0.05mm;fill:none" d="M6.165646,-0.064724C5.67683,-0.064819,5.1898,-0.12381,4.715092,-0.240425L4.715092,-1.179905C3.009838,-1.676476,1.676479,-3.009838,1.179905,-4.715088L0.240425,-4.715088C0.123814,-5.189796,0.064823,-5.676823,0.064728,-6.165646C0.064823,-6.654469,0.123814,-7.141495,0.240425,-7.616203L1.179905,-7.616203C1.676476,-9.321457,3.009838,-10.654816,4.715092,-11.15139L4.715092,-12.090866C5.1898,-12.207481,5.67683,-12.266472,6.165646,-12.266563C6.654461,-12.266472,7.141499,-12.207481,7.616207,-12.090866L7.616207,-11.15139C9.321461,-10.654816,10.654819,-9.321457,11.151394,-7.616203L12.09087,-7.616203C12.207485,-7.141495,12.266476,-6.654469,12.266567,-6.165646C12.266476,-5.676823,12.207485,-5.189796,12.09087,-4.715088L11.153973,-4.715088C10.657673,-3.008217,9.323078,-1.673622,7.616207,-1.177319L7.616207,-0.240425C7.141499,-0.12381,6.654469,-0.064819,6.165646,-0.064724z"/>
    <path transform="matrix(1,0,0,-1,182.334,-194.666)" style="stroke:#000000;stroke-width:0.05mm;fill:none" d="M6.165646,-0.064724C5.67683,-0.064819,5.1898,-0.12381,4.715092,-0.240425L4.715092,-1.179905C3.009838,-1.676476,1.676479,-3.009838,1.179905,-4.715088L0.240425,-4.715088C0.123814,-5.189796,0.064823,-5.676823,0.064728,-6.165646C0.064823,-6.654469,0.123814,-7.141495,0.240425,-7.616203L1.179905,-7.616203C1.676476,-9.321457,3.009838,-10.654816,4.715092,-11.15139L4.715092,-12.090866C5.1898,-12.207481,5.67683,-12.266472,6.165646,-12.266563C6.654461,-12.266472,7.141499,-12.207481,7.616207,-12.090866L7.616207,-11.15139C9.321461,-10.654816,10.654819,-9.321457,11.151394,-7.616203L12.09087,-7.616203C12.207485,-7.141495,12.266476,-6.654469,12.266567,-6.165646C12.266476,-5.676823,12.207485,-5.189796,12.09087,-4.715088L11.153973,-4.715088C10.657673,-3.008217,9.323078,-1.673622,7.616207,-1.177319L7.616207,-0.240425C7.141499,-0.12381,6.654469,-0.064819,6.165646,-0.064724z"/>
    <path transform="matrix(1,0,0,-1,215.334,-194.666)" style="stroke:#000000;stroke-width:0.05mm;fill:none" d="M6.165646,-0.064724C5.67683,-0.064819,5.1898,-0.12381,4.715092,-0.240425L4.715092,-1.179905C3.009838,-1.676476,1.676479,-3.009838,1.179905,-4.715088L0.240425,-4.715088C0.123814,-5.189796,0.064823,-5.676823,0.064728,-6.165646C0.064823,-6.654469,0.123814,-7.141495,0.240425,-7.616203L1.179905,-7.616203C1.676476,-9.321457,3.009838,-10.654816,4.715092,-11.15139L4.715092,-12.090866C5.1898,-12.207481,5.67683,-12.266472,6.165646,-12.266563C6.654461,-12.266472,7.141499,-12.207481,7.616207,-12.090866L7.616207,-11.15139C9.321461,-10.654816,10.654819,-9.321457,11.151394,-7.616203L12.09087,-7.616203C12.207485,-7.141495,12.266476,-6.654469,12.266567,-6.165646C12.266476,-5.676823,12.207485,-5.189796,12.09087,-4.715088L11.153973,-4.715088C10.657673,-3.008217,9.323078,-1.673622,7.616207,-1.177319L7.616207,-0.240425C7.141499,-0.12381,6.654469,-0.064819,6.165646,-0.064724z"/>
    <path transform="matrix(1,0,0,-1,17.3344,-227.666)" style="stroke:#000000;stroke-width:0.05mm;fill:none" d="M6.165646,-0.064724C5.67683,-0.064819,5.1898,-0.12381,4.715092,-0.240425L4.715092,-1.179905C3.009838,-1.676476,1.676479,-3.009838,1.179905,-4.715088L0.240425,-4.715088C0.123814,-5.189796,0.064823,-5.676823,0.064728,-6.165646C0.064823,-6.654469,0.123814,-7.141495,0.240425,-7.616203L1.179905,-7.616203C1.676476,-9.321457,3.009838,-10.654816,4.715092,-11.15139L4.715092,-12.090866C5.1898,-12.207481,5.67683,-12.266472,6.165646,-12.266563C6.654461,-12.266472,7.141499,-12.207481,7.616207,-12.090866L7.616207,-11.15139C9.321461,-10.654816,10.654819,-9.321457,11.151394,-7.616203L12.09087,-7.616203C12.207485,-7.141495,12.266476,-6.654469,12.266567,-6.165646C12.266476,-5.676823,12.207485,-5.189796,12.09087,-4.715088L11.153973,-4.715088C10.657673,-3.008217,9.323078,-1.673622,7.616207,-1.177319L7.616207,-0.240425C7.141499,-0.12381,6.654469,-0.064819,6.165646,-0.064724z"/>
    <path transform="matrix(1,0,0,-1,50.3344,-227.666)" style="stroke:#000000;stroke-width:0.05mm;fill:none" d="M6.165646,-0.064724C5.67683,-0.064819,5.1898,-0.12381,4.715092,-0.240425L4.715092,-1.179905C3.009838,-1.676476,1.676479,-3.009838,1.179905,-4.715088L0.240425,-4.715088C0.123814,-5.189796,0.064823,-5.676823,0.064728,-6.165646C0.064823,-6.654469,0.123814,-7.141495,0.240425,-7.616203L1.179905,-7.616203C1.676476,-9.321457,3.009838,-10.654816,4.715092,-11.15139L4.715092,-12.090866C5.1898,-12.207481,5.67683,-12.266472,6.165646,-12.266563C6.654461,-12.266472,7.141499,-12.207481,7.616207,-12.090866L7.616207,-11.15139C9.321461,-10.654816,10.654819,-9.321457,11.151394,-7.616203L12.09087,-7.616203C12.207485,-7.141495,12.266476,-6.654469,12.266567,-6.165646C12.266476,-5.676823,12.207485,-5.189796,12.09087,-4.715088L11.153973,-4.715088C10.657673,-3.008217,9.323078,-1.673622,7.616207,-1.177319L7.616207,-0.240425C7.141499,-0.12381,6.654469,-0.064819,6.165646,-0.064724z"/>
    <path transform="matrix(1,0,0,-1,83.334396,-227.666)" style="stroke:#000000;stroke-width:0.05mm;fill:none" d="M6.165646,-0.064724C5.67683,-0.064819,5.1898,-0.12381,4.715092,-0.240425L4.715092,-1.179905C3.009838,-1.676476,1.676479,-3.009838,1.179905,-4.715088L0.240425,-4.715088C0.123814,-5.189796,0.064823,-5.676823,0.064728,-6.165646C0.064823,-6.654469,0.123814,-7.141495,0.240425,-7.616203L1.179905,-7.616203C1.676476,-9.321457,3.009838,-10.654816,4.715092,-11.15139L4.715092,-12.090866C5.1898,-12.207481,5.67683,-12.266472,6.165646,-12.266563C6.654461,-12.266472,7.141499,-12.207481,7.616207,-12.090866L7.616207,-11.15139C9.321461,-10.654816,10.654819,-9.321457,11.151394,-7.616203L12.09087,-7.616203C12.207485,-7.141495,12.266476,-6.654469,12.266567,-6.165646C12.266476,-5.676823,12.207485,-5.189796,12.09087,-4.715088L11.153973,-4.715088C10.657673,-3.008217,9.323078,-1.673622,7.616207,-1.177319L7.616207,-0.240425C7.141499,-0.12381,6.654469,-0.064819,6.165646,-0.064724z"/>
    <path transform="matrix(1,0,0,-1,116.334,-227.666)" style="stroke:#000000;stroke-width:0.05mm;fill:none" d="M6.165646,-0.064724C5.67683,-0.064819,5.1898,-0.12381,4.715092,-0.240425L4.715092,-1.179905C3.009838,-1.676476,1.676479,-3.009838,1.179905,-4.715088L0.240425,-4.715088C0.123814,-5.189796,0.064823,-5.676823,0.064728,-6.165646C0.064823,-6.654469,0.123814,-7.141495,0.240425,-7.616203L1.179905,-7.616203C1.676476,-9.321457,3.009838,-10.654816,4.715092,-11.15139L4.715092,-12.090866C5.1898,-12.207481,5.67683,-12.266472,6.165646,-12.266563C6.654461,-12.266472,7.141499,-12.207481,7.616207,-12.090866L7.616207,-11.15139C9.321461,-10.654816,10.654819,-9.321457,11.151394,-7.616203L12.09087,-7.616203C12.207485,-7.141495,12.266476,-6.654469,12.266567,-6.165646C12.266476,-5.676823,12.207485,-5.189796,12.09087,-4.715088L11.153973,-4.715088C10.657673,-3.008217,9.323078,-1.673622,7.616207,-1.177319L7.616207,-0.240425C7.141499,-0.12381,6.654469,-0.064819,6.165646,-0.064724z"/>
    <path transform="matrix(1,0,0,-1,149.334,-227.666)" style="stroke:#000000;stroke-width:0.05mm;fill:none" d="M6.165646,-0.064724C5.67683,-0.064819,5.1898,-0.12381,4.715092,-0.240425L4.715092,-1.179905C3.009838,-1.676476,1.676479,-3.009838,1.179905,-4.715088L0.240425,-4.715088C0.123814,-5.189796,0.064823,-5.676823,0.064728,-6.165646C0.064823,-6.654469,0.123814,-7.141495,0.240425,-7.616203L1.179905,-7.616203C1.676476,-9.321457,3.009838,-10.654816,4.715092,-11.15139L4.715092,-12.090866C5.1898,-12.207481,5.67683,-12.266472,6.165646,-12.266563C6.654461,-12.266472,7.141499,-12.207481,7.616207,-12.090866L7.616207,-11.15139C9.321461,-10.654816,10.654819,-9.321457,11.151394,-7.616203L12.09087,-7.616203C12.207485,-7.141495,12.266476,-6.654469,12.266567,-6.165646C12.266476,-5.676823,12.207485,-5.189796,12.09087,-4.715088L11.153973,-4.715088C10.657673,-3.008217,9.323078,-1.673622,7.616207,-1.177319L7.616207,-0.240425C7.141499,-0.12381,6.654469,-0.064819,6.165646,-0.064724z"/>
    <path transform="matrix(1,0,0,-1,182.334,-227.666)" style="stroke:#000000;stroke-width:0.05mm;fill:none" d="M6.165646,-0.064724C5.67683,-0.064819,5.1898,-0.12381,4.715092,-0.240425L4.715092,-1.179905C3.009838,-1.676476,1.676479,-3.009838,1.179905,-4.715088L0.240425,-4.715088C0.123814,-5.189796,0.064823,-5.676823,0.064728,-6.165646C0.064823,-6.654469,0.123814,-7.141495,0.240425,-7.616203L1.179905,-7.616203C1.676476,-9.321457,3.009838,-10.654816,4.715092,-11.15139L4.715092,-12.090866C5.1898,-12.207481,5.67683,-12.266472,6.165646,-12.266563C6.654461,-12.266472,7.141499,-12.207481,7.616207,-12.090866L7.616207,-11.15139C9.321461,-10.654816,10.654819,-9.321457,11.151394,-7.616203L12.09087,-7.616203C12.207485,-7.141495,12.266476,-6.654469,12.266567,-6.165646C12.266476,-5.676823,12.207485,-5.189796,12.09087,-4.715088L11.153973,-4.715088C10.657673,-3.008217,9.323078,-1.673622,7.616207,-1.177319L7.616207,-0.240425C7.141499,-0.12381,6.654469,-0.064819,6.165646,-0.064724z"/>
    <path transform="matrix(1,0,0,-1,215.334,-227.666)" style="stroke:#000000;stroke-width:0.05mm;fill:none" d="M6.165646,-0.064724C5.67683,-0.064819,5.1898,-0.12381,4.715092,-0.240425L4.715092,-1.179905C3.009838,-1.676476,1.676479,-3.009838,1.179905,-4.715088L0.240425,-4.715088C0.123814,-5.189796,0.064823,-5.676823,0.064728,-6.165646C0.064823,-6.654469,0.123814,-7.141495,0.240425,-7.616203L1.179905,-7.616203C1.676476,-9.321457,3.009838,-10.654816,4.715092,-11.15139L4.715092,-12.090866C5.1898,-12.207481,5.67683,-12.266472,6.165646,-12.266563C6.654461,-12.266472,7.141499,-12.207481,7.616207,-12.090866L7.616207,-11.15139C9.321461,-10.654816,10.654819,-9.321457,11.151394,-7.616203L12.09087,-7.616203C12.207485,-7.141495,12.266476,-6.654469,12.266567,-6.165646C12.266476,-5.676823,12.207485,-5.189796,12.09087,-4.715088L11.153973,-4.715088C10.657673,-3.008217,9.323078,-1.673622,7.616207,-1.177319L7.616207,-0.240425C7.141499,-0.12381,6.654469,-0.064819,6.165646,-0.064724z"/>
    <circle transform="matrix(1,0,0,-1,9,-9)" style="stroke:#000000;stroke-width:0.05mm;fill:none" r="1.75" cx="0" cy="0"/>
    <circle transform="matrix(1,0,0,-1,236,-9)" style="stroke:#000000;stroke-width:0.05mm;fill:none" r="1.75" cx="0" cy="0"/>
    <circle transform="matrix(1,0,0,-1,9,-236)" style="stroke:#000000;stroke-width:0.05mm;fill:none" r="1.75" cx="0" cy="0"/>
    <circle transform="matrix(1,0,0,-1,236,-236)" style="stroke:#000000;stroke-width:0.05mm;fill:none" r="1.75" cx="0" cy="0"/>
    <path transform="matrix(1,0,0,-1,0,0)" style="stroke:#ff0000;stroke-width:0.05mm;fill:none" d="M2,3C2,2.447715,2.447715,2,3,2L22.504,2L22.504,0L222.503998,0L222.503998,2L242,2C242.552292,2,243,2.447715,243,3L243,22.504L245,22.504L245,222.503998L243,222.503998L243,242C243,242.552292,242.552292,243,242,243L222.503998,243L222.503998,245L22.504,245L22.504,243L3,243C2.447716,243,2,242.552292,2,242L2,222.503998L0,222.503998L0,22.504L2,22.504L2,3z"/>
</svg>
