<?xml version="1.0" encoding="UTF-8"?>
<svg xmlns="http://www.w3.org/2000/svg" xmlns:xlink="http://www.w3.org/1999/xlink" width="245.000mm" height="357.504mm" viewBox="0.000000 -357.503998 245.000000 357.503998">
    <path transform="matrix(1,0,0,-1,0,-90)" style="stroke:#000000;stroke-width:0.05mm;fill:none" d="M245,87.503998L0,87.503998L0,0L245,0L245,87.503998z"/>
    <path transform="matrix(1,0,0,-1,0,-90)" style="stroke:#000000;stroke-width:0.05mm;fill:none" d="M11.792,70.512001L11.6,70.543999C10.590702,70.743431,9.899761,71.680901,10.008,72.704002C10.111132,73.735916,10.987039,74.517975,12.024,74.503998C13.121305,74.488022,14.001644,73.593422,14,72.496002C13.993669,71.395058,13.10096,70.505913,12,70.503998L11.792,70.512001z"/>
    <path transform="matrix(1,0,0,-1,0,-90)" style="stroke:#000000;stroke-width:0.05mm;fill:none" d="M232.792007,70.512001L232.600006,70.543999C232.08075,70.648293,231.624054,70.954659,231.331238,71.395981C231.038422,71.837303,230.93364,72.377159,231.039993,72.896004C231.14502,73.415367,231.450668,73.872787,231.891556,74.166718C232.332428,74.460648,232.872208,74.566887,233.391998,74.463997C234.405899,74.264771,235.100555,73.32357,234.992004,72.295998C234.875473,71.196922,233.891479,70.3992,232.792007,70.512001z"/>
    <path transform="matrix(1,0,0,-1,0,-90)" style="stroke:#000000;stroke-width:0.05mm;fill:none" d="M232.792007,13.008L232.600006,13.04C231.593567,13.244102,230.905075,14.178246,231.007996,15.2C231.123642,16.297613,232.101303,17.096855,233.199997,16.992001C234.220932,16.885094,234.996765,16.026516,235,15C235.003098,13.959739,234.20488,13.091809,233.167999,13.008C233.042892,12.997279,232.917114,12.997287,232.792007,13.008z"/>
    <path transform="matrix(1,0,0,-1,0,-90)" style="stroke:#000000;stroke-width:0.05mm;fill:none" d="M11.792,13.008L11.6,13.04C10.517907,13.261665,9.819933,14.317579,10.04,15.4C10.261667,16.482092,11.31758,17.180073,12.4,16.959999C13.407853,16.752024,14.09527,15.815893,13.992,14.792C13.88327,13.773564,13.024222,13.000767,12,13L11.792,13.008z"/>
    <path transform="matrix(1,0,0,-1,0,0)" style="stroke:#000000;stroke-width:0.05mm;fill:none" d="M245,87.503998L0,87.503998L0,0L245,0L245,87.503998z"/>
    <path transform="matrix(1,0,0,-1,0,0)" style="stroke:#000000;stroke-width:0.05mm;fill:none" d="M11.792,70.512001L11.6,70.543999C11.08023,70.647095,10.623451,70.953773,10.330563,71.39537C10.037673,71.83696,9.932819,72.37706,10.04,72.896004C10.237974,73.91745,11.19097,74.612114,12.224,74.487999C13.313431,74.363243,14.100742,73.387146,13.992,72.295998C13.88205,71.278358,13.023559,70.506058,12,70.503998L11.792,70.512001z"/>
    <path transform="matrix(1,0,0,-1,0,0)" style="stroke:#000000;stroke-width:0.05mm;fill:none" d="M232.792007,70.512001L232.600006,70.543999C231.590118,70.74276,230.898727,71.680557,231.007996,72.704002C231.125031,73.800827,232.101776,74.599174,233.199997,74.496002C234.228821,74.392357,235.008743,73.521996,235,72.487999C234.990402,71.38958,234.098465,70.504982,233,70.503998L232.792007,70.512001z"/>
    <path transform="matrix(1,0,0,-1,0,0)" style="stroke:#000000;stroke-width:0.05mm;fill:none" d="M11.72,27.504L11.44,27.528C8.526443,27.82729,6.357516,30.354774,6.504,33.279999C6.662543,36.313667,9.245923,38.64658,12.28,38.495998C15.313668,38.337456,17.64658,35.754078,17.496,32.720001C17.347832,29.902731,15.097271,27.65217,12.28,27.504L11.72,27.504z"/>
    <path transform="matrix(1,0,0,-1,0,0)" style="stroke:#000000;stroke-width:0.05mm;fill:none" d="M232.792007,13.008L232.600006,13.04C232.079834,13.145565,231.622559,13.453258,231.329865,13.896033C231.03717,14.33881,230.933228,14.880071,231.039993,15.4C231.146103,15.918241,231.452682,16.373823,231.893524,16.666222C232.334351,16.95862,232.873306,17.063868,233.391998,16.959999C234.469849,16.740877,235.171829,15.696853,234.968002,14.616C234.76709,13.598663,233.823486,12.901342,232.792007,13.008z"/>
    <path transform="matrix(1,0,0,-1,0,0)" style="stroke:#000000;stroke-width:0.05mm;fill:none" d="M11.792,13.008L11.6,13.04C10.593572,13.244117,9.905078,14.17825,10.008,15.2C10.123675,16.297604,11.101307,17.096836,12.2,16.992001C13.228783,16.889084,14.009748,16.017872,14,14.984C13.991865,13.885267,13.098763,12.99931,12,13L11.792,13.008z"/>
    <path transform="matrix(1,0,0,-1,0,-180)" style="stroke:#000000;stroke-width:0.05mm;fill:none" d="M245,87.503998L0,87.503998L0,0L245,0L245,87.503998z"/>
    <path transform="matrix(1,0,0,-1,0,-180)" style="stroke:#000000;stroke-width:0.05mm;fill:none" d="M11.792,70.512001L11.6,70.543999C10.590702,70.743431,9.899761,71.680901,10.008,72.704002C10.111132,73.735916,10.987039,74.517975,12.024,74.503998C13.121305,74.488022,14.001644,73.593422,14,72.496002C13.993669,71.395058,13.10096,70.505913,12,70.503998L11.792,70.512001z"/>
    <path transform="matrix(1,0,0,-1,0,-180)" style="stroke:#000000;stroke-width:0.05mm;fill:none" d="M232.792007,70.512001L232.600006,70.543999C232.08075,70.648293,231.624054,70.954659,231.331238,71.395981C231.038422,71.837303,230.93364,72.377159,231.039993,72.896004C231.14502,73.415367,231.450668,73.872787,231.891556,74.166718C232.332428,74.460648,232.872208,74.566887,233.391998,74.463997C234.405899,74.264771,235.100555,73.32357,234.992004,72.295998C234.875473,71.196922,233.891479,70.3992,232.792007,70.512001z"/>
    <path transform="matrix(1,0,0,-1,0,-180)" style="stroke:#000000;stroke-width:0.05mm;fill:none" d="M232.792007,13.008L232.600006,13.04C231.593567,13.244102,230.905075,14.178246,231.007996,15.2C231.123642,16.297613,232.101303,17.096855,233.199997,16.992001C234.220932,16.885094,234.996765,16.026516,235,15C235.003098,13.959739,234.20488,13.091809,233.167999,13.008C233.042892,12.997279,232.917114,12.997287,232.792007,13.008z"/>
    <path transform="matrix(1,0,0,-1,0,-180)" style="stroke:#000000;stroke-width:0.05mm;fill:none" d="M11.792,13.008L11.6,13.04C10.517907,13.261665,9.819933,14.317579,10.04,15.4C10.261667,16.482092,11.31758,17.180073,12.4,16.959999C13.407853,16.752024,14.09527,15.815893,13.992,14.792C13.88327,13.773564,13.024222,13.000767,12,13L11.792,13.008z"/>
    <path transform="matrix(1,0,0,-1,0,-270)" style="stroke:#000000;stroke-width:0.05mm;fill:none" d="M245,87.503998L0,87.503998L0,0L245,0L245,87.503998z"/>
    <path transform="matrix(1,0,0,-1,0,-270)" style="stroke:#000000;stroke-width:0.05mm;fill:none" d="M11.792,70.512001L11.6,70.543999C10.590702,70.743431,9.899761,71.680901,10.008,72.704002C10.111132,73.735916,10.987039,74.517975,12.024,74.503998C13.121305,74.488022,14.001644,73.593422,14,72.496002C13.993669,71.395058,13.10096,70.505913,12,70.503998L11.792,70.512001z"/>
    <path transform="matrix(1,0,0,-1,0,-270)" style="stroke:#000000;stroke-width:0.05mm;fill:none" d="M232.792007,70.512001L232.600006,70.543999C232.08075,70.648293,231.624054,70.954659,231.331238,71.395981C231.038422,71.837303,230.93364,72.377159,231.039993,72.896004C231.14502,73.415367,231.450668,73.872787,231.891556,74.166718C232.332428,74.460648,232.872208,74.566887,233.391998,74.463997C234.405899,74.264771,235.100555,73.32357,234.992004,72.295998C234.875473,71.196922,233.891479,70.3992,232.792007,70.512001z"/>
    <path transform="matrix(1,0,0,-1,0,-270)" style="stroke:#000000;stroke-width:0.05mm;fill:none" d="M232.792007,13.008L232.600006,13.04C231.593567,13.244102,230.905075,14.178246,231.007996,15.2C231.123642,16.297613,232.101303,17.096855,233.199997,16.992001C234.220932,16.885094,234.996765,16.026516,235,15C235.003098,13.959739,234.20488,13.091809,233.167999,13.008C233.042892,12.997279,232.917114,12.997287,232.792007,13.008z"/>
    <path transform="matrix(1,0,0,-1,0,-270)" style="stroke:#000000;stroke-width:0.05mm;fill:none" d="M11.792,13.008L11.6,13.04C10.517907,13.261665,9.819933,14.317579,10.04,15.4C10.261667,16.482092,11.31758,17.180073,12.4,16.959999C13.407853,16.752024,14.09527,15.815893,13.992,14.792C13.88327,13.773564,13.024222,13.000767,12,13L11.792,13.008z"/>
</svg>
