<?xml version="1.0" encoding="UTF-8"?>
<svg xmlns="http://www.w3.org/2000/svg" xmlns:xlink="http://www.w3.org/1999/xlink" width="492.000mm" height="317.512mm" viewBox="0.000000 -317.503998 492.000000 317.511993">
    <path transform="matrix(1,0,0,-1,0,-7)" style="stroke:#000000;stroke-width:0.05mm;fill:none" d="M39.248001,273L39.248001,292L40.751999,292L40.751999,273L72.248001,273L72.248001,292L73.751999,292L73.751999,273L105.248001,273L105.248001,292L106.751999,292L106.751999,273L138.248001,273L138.248001,292L139.751999,292L139.751999,273L171.248001,273L171.248001,292L172.751999,292L172.751999,273L204.248001,273L204.248001,292L205.751999,292L205.751999,273L237.248001,273L237.248001,292L238.751999,292L238.751999,273L245,273L245,310.503998L0,310.503998L0,273L6.248,273L6.248,292L7.752,292L7.752,273L39.248001,273z"/>
    <path transform="matrix(1,0,0,-1,0,-3)" style="stroke:#000000;stroke-width:0.05mm;fill:none" d="M4,119.503998L10,119.503998L10,117L235,117L235,119.503998L241,119.503998L241,117L243,117L243,154.503998L238.751999,154.503998L238.751999,135.503998L237.248001,135.503998L237.248001,154.503998L205.751999,154.503998L205.751999,135.503998L204.248001,135.503998L204.248001,154.503998L172.751999,154.503998L172.751999,135.503998L171.248001,135.503998L171.248001,154.503998L139.751999,154.503998L139.751999,135.503998L138.248001,135.503998L138.248001,154.503998L106.751999,154.503998L106.751999,135.503998L105.248001,135.503998L105.248001,154.503998L73.751999,154.503998L73.751999,135.503998L72.248001,135.503998L72.248001,154.503998L40.751999,154.503998L40.751999,135.503998L39.248001,135.503998L39.248001,154.503998L7.752,154.503998L7.752,135.503998L6.248,135.503998L6.248,154.503998L2,154.503998L2,117L4,117L4,119.503998z"/>
    <path transform="matrix(1,0,0,-1,0,-2)" style="stroke:#000000;stroke-width:0.05mm;fill:none" d="M10,80.503998L10,78L39.248001,78L39.248001,97L40.751999,97L40.751999,78L72.248001,78L72.248001,97L73.751999,97L73.751999,78L105.248001,78L105.248001,97L106.751999,97L106.751999,78L138.248001,78L138.248001,97L139.751999,97L139.751999,78L171.248001,78L171.248001,97L172.751999,97L172.751999,78L204.248001,78L204.248001,97L205.751999,97L205.751999,78L235,78L235,80.503998L237.248001,80.503998L237.248001,97L238.751999,97L238.751999,80.503998L241,80.503998L241,78L243,78L243,115.503998L2,115.503998L2,78L4,78L4,80.503998L6.248,80.503998L6.248,97L7.752,97L7.752,80.503998L10,80.503998z"/>
    <path transform="matrix(1,0,0,-1,0,33.004002)" style="stroke:#000000;stroke-width:0.05mm;fill:none" d="M39.248001,273L39.248001,292L40.751999,292L40.751999,273L72.248001,273L72.248001,292L73.751999,292L73.751999,273L105.248001,273L105.248001,292L106.751999,292L106.751999,273L138.248001,273L138.248001,292L139.751999,292L139.751999,273L171.248001,273L171.248001,292L172.751999,292L172.751999,273L204.248001,273L204.248001,292L205.751999,292L205.751999,273L237.248001,273L237.248001,292L238.751999,292L238.751999,273L245,273L245,310.503998L0,310.503998L0,273L6.248,273L6.248,292L7.752,292L7.752,273L39.248001,273z"/>
    <path transform="matrix(1,0,0,-1,0,73.003998)" style="stroke:#000000;stroke-width:0.05mm;fill:none" d="M39.248001,273L39.248001,292L40.751999,292L40.751999,273L72.248001,273L72.248001,292L73.751999,292L73.751999,273L105.248001,273L105.248001,292L106.751999,292L106.751999,273L138.248001,273L138.248001,292L139.751999,292L139.751999,273L171.248001,273L171.248001,292L172.751999,292L172.751999,273L204.248001,273L204.248001,292L205.751999,292L205.751999,273L237.248001,273L237.248001,292L238.751999,292L238.751999,273L245,273L245,310.503998L0,310.503998L0,273L6.248,273L6.248,292L7.752,292L7.752,273L39.248001,273z"/>
    <path transform="matrix(1,0,0,-1,0,113.003998)" style="stroke:#000000;stroke-width:0.05mm;fill:none" d="M39.248001,273L39.248001,292L40.751999,292L40.751999,273L72.248001,273L72.248001,292L73.751999,292L73.751999,273L105.248001,273L105.248001,292L106.751999,292L106.751999,273L138.248001,273L138.248001,292L139.751999,292L139.751999,273L171.248001,273L171.248001,292L172.751999,292L172.751999,273L204.248001,273L204.248001,292L205.751999,292L205.751999,273L237.248001,273L237.248001,292L238.751999,292L238.751999,273L245,273L245,310.503998L0,310.503998L0,273L6.248,273L6.248,292L7.752,292L7.752,273L39.248001,273z"/>
    <path transform="matrix(1,0,0,-1,0,77.003998)" style="stroke:#000000;stroke-width:0.05mm;fill:none" d="M4,119.503998L10,119.503998L10,117L235,117L235,119.503998L241,119.503998L241,117L243,117L243,154.503998L238.751999,154.503998L238.751999,135.503998L237.248001,135.503998L237.248001,154.503998L205.751999,154.503998L205.751999,135.503998L204.248001,135.503998L204.248001,154.503998L172.751999,154.503998L172.751999,135.503998L171.248001,135.503998L171.248001,154.503998L139.751999,154.503998L139.751999,135.503998L138.248001,135.503998L138.248001,154.503998L106.751999,154.503998L106.751999,135.503998L105.248001,135.503998L105.248001,154.503998L73.751999,154.503998L73.751999,135.503998L72.248001,135.503998L72.248001,154.503998L40.751999,154.503998L40.751999,135.503998L39.248001,135.503998L39.248001,154.503998L7.752,154.503998L7.752,135.503998L6.248,135.503998L6.248,154.503998L2,154.503998L2,117L4,117L4,119.503998z"/>
    <path transform="matrix(1,0,0,-1,0,78.003998)" style="stroke:#000000;stroke-width:0.05mm;fill:none" d="M10,80.503998L10,78L39.248001,78L39.248001,97L40.751999,97L40.751999,78L72.248001,78L72.248001,97L73.751999,97L73.751999,78L105.248001,78L105.248001,97L106.751999,97L106.751999,78L138.248001,78L138.248001,97L139.751999,97L139.751999,78L171.248001,78L171.248001,97L172.751999,97L172.751999,78L204.248001,78L204.248001,97L205.751999,97L205.751999,78L235,78L235,80.503998L237.248001,80.503998L237.248001,97L238.751999,97L238.751999,80.503998L241,80.503998L241,78L243,78L243,115.503998L2,115.503998L2,78L4,78L4,80.503998L6.248,80.503998L6.248,97L7.752,97L7.752,80.503998L10,80.503998z"/>
    <path transform="matrix(1,0,0,-1,247,-7)" style="stroke:#000000;stroke-width:0.05mm;fill:none" d="M39.248001,273L39.248001,292L40.751999,292L40.751999,273L72.248001,273L72.248001,292L73.751999,292L73.751999,273L105.248001,273L105.248001,292L106.751999,292L106.751999,273L138.248001,273L138.248001,292L139.751999,292L139.751999,273L171.248001,273L171.248001,292L172.751999,292L172.751999,273L204.248001,273L204.248001,292L205.751999,292L205.751999,273L237.248001,273L237.248001,292L238.751999,292L238.751999,273L245,273L245,310.503998L0,310.503998L0,273L6.248,273L6.248,292L7.752,292L7.752,273L39.248001,273z"/>
    <path transform="matrix(1,0,0,-1,247,33.004002)" style="stroke:#000000;stroke-width:0.05mm;fill:none" d="M39.248001,273L39.248001,292L40.751999,292L40.751999,273L72.248001,273L72.248001,292L73.751999,292L73.751999,273L105.248001,273L105.248001,292L106.751999,292L106.751999,273L138.248001,273L138.248001,292L139.751999,292L139.751999,273L171.248001,273L171.248001,292L172.751999,292L172.751999,273L204.248001,273L204.248001,292L205.751999,292L205.751999,273L237.248001,273L237.248001,292L238.751999,292L238.751999,273L245,273L245,310.503998L0,310.503998L0,273L6.248,273L6.248,292L7.752,292L7.752,273L39.248001,273z"/>
    <path transform="matrix(1,0,0,-1,247,73.003998)" style="stroke:#000000;stroke-width:0.05mm;fill:none" d="M39.248001,273L39.248001,292L40.751999,292L40.751999,273L72.248001,273L72.248001,292L73.751999,292L73.751999,273L105.248001,273L105.248001,292L106.751999,292L106.751999,273L138.248001,273L138.248001,292L139.751999,292L139.751999,273L171.248001,273L171.248001,292L172.751999,292L172.751999,273L204.248001,273L204.248001,292L205.751999,292L205.751999,273L237.248001,273L237.248001,292L238.751999,292L238.751999,273L245,273L245,310.503998L0,310.503998L0,273L6.248,273L6.248,292L7.752,292L7.752,273L39.248001,273z"/>
    <path transform="matrix(1,0,0,-1,247,113.003998)" style="stroke:#000000;stroke-width:0.05mm;fill:none" d="M39.248001,273L39.248001,292L40.751999,292L40.751999,273L72.248001,273L72.248001,292L73.751999,292L73.751999,273L105.248001,273L105.248001,292L106.751999,292L106.751999,273L138.248001,273L138.248001,292L139.751999,292L139.751999,273L171.248001,273L171.248001,292L172.751999,292L172.751999,273L204.248001,273L204.248001,292L205.751999,292L205.751999,273L237.248001,273L237.248001,292L238.751999,292L238.751999,273L245,273L245,310.503998L0,310.503998L0,273L6.248,273L6.248,292L7.752,292L7.752,273L39.248001,273z"/>
    <path transform="matrix(1,0,0,-1,247,153.003998)" style="stroke:#000000;stroke-width:0.05mm;fill:none" d="M39.248001,273L39.248001,292L40.751999,292L40.751999,273L72.248001,273L72.248001,292L73.751999,292L73.751999,273L105.248001,273L105.248001,292L106.751999,292L106.751999,273L138.248001,273L138.248001,292L139.751999,292L139.751999,273L171.248001,273L171.248001,292L172.751999,292L172.751999,273L204.248001,273L204.248001,292L205.751999,292L205.751999,273L237.248001,273L237.248001,292L238.751999,292L238.751999,273L245,273L245,310.503998L0,310.503998L0,273L6.248,273L6.248,292L7.752,292L7.752,273L39.248001,273z"/>
    <path transform="matrix(1,0,0,-1,247,193.007996)" style="stroke:#000000;stroke-width:0.05mm;fill:none" d="M39.248001,273L39.248001,292L40.751999,292L40.751999,273L72.248001,273L72.248001,292L73.751999,292L73.751999,273L105.248001,273L105.248001,292L106.751999,292L106.751999,273L138.248001,273L138.248001,292L139.751999,292L139.751999,273L171.248001,273L171.248001,292L172.751999,292L172.751999,273L204.248001,273L204.248001,292L205.751999,292L205.751999,273L237.248001,273L237.248001,292L238.751999,292L238.751999,273L245,273L245,310.503998L0,310.503998L0,273L6.248,273L6.248,292L7.752,292L7.752,273L39.248001,273z"/>
    <path transform="matrix(1,0,0,-1,247,233.007996)" style="stroke:#000000;stroke-width:0.05mm;fill:none" d="M39.248001,273L39.248001,292L40.751999,292L40.751999,273L72.248001,273L72.248001,292L73.751999,292L73.751999,273L105.248001,273L105.248001,292L106.751999,292L106.751999,273L138.248001,273L138.248001,292L139.751999,292L139.751999,273L171.248001,273L171.248001,292L172.751999,292L172.751999,273L204.248001,273L204.248001,292L205.751999,292L205.751999,273L237.248001,273L237.248001,292L238.751999,292L238.751999,273L245,273L245,310.503998L0,310.503998L0,273L6.248,273L6.248,292L7.752,292L7.752,273L39.248001,273z"/>
    <path transform="matrix(1,0,0,-1,247,273.007996)" style="stroke:#000000;stroke-width:0.05mm;fill:none" d="M39.248001,273L39.248001,292L40.751999,292L40.751999,273L72.248001,273L72.248001,292L73.751999,292L73.751999,273L105.248001,273L105.248001,292L106.751999,292L106.751999,273L138.248001,273L138.248001,292L139.751999,292L139.751999,273L171.248001,273L171.248001,292L172.751999,292L172.751999,273L204.248001,273L204.248001,292L205.751999,292L205.751999,273L237.248001,273L237.248001,292L238.751999,292L238.751999,273L245,273L245,310.503998L0,310.503998L0,273L6.248,273L6.248,292L7.752,292L7.752,273L39.248001,273z"/>
</svg>
